<?xml version="1.0" encoding="utf-8"?>
<!-- Generator: Adobe Illustrator 17.0.0, SVG Export Plug-In . SVG Version: 6.00 Build 0)  -->
<!DOCTYPE svg PUBLIC "-//W3C//DTD SVG 1.1//EN" "http://www.w3.org/Graphics/SVG/1.1/DTD/svg11.dtd">
<svg version="1.1" id="Layer_1" xmlns="http://www.w3.org/2000/svg" xmlns:xlink="http://www.w3.org/1999/xlink" x="0px" y="0px"
	 width="18px" height="18px" viewBox="0 0 18 18" enable-background="new 0 0 18 18" xml:space="preserve">
<g>
	<rect fill="none" width="18" height="18"/>
	<g>
		<polygon points="11.576,5.576 9,8.152 6.424,5.576 5.576,6.424 8.152,9 5.576,11.576 6.424,12.424 9,9.848 11.576,12.424 
			12.424,11.576 9.848,9 12.424,6.424 		"/>
		<path d="M9,1C4.582,1,1,4.582,1,9s3.582,8,8,8s8-3.582,8-8S13.418,1,9,1z M9,16c-3.86,0-7-3.14-7-7s3.14-7,7-7s7,3.14,7,7
			S12.86,16,9,16z"/>
	</g>
</g>
</svg>
