<?xml version="1.0" encoding="utf-8"?>
<!-- Generator: Adobe Illustrator 17.0.0, SVG Export Plug-In . SVG Version: 6.00 Build 0)  -->
<!DOCTYPE svg PUBLIC "-//W3C//DTD SVG 1.1//EN" "http://www.w3.org/Graphics/SVG/1.1/DTD/svg11.dtd">
<svg version="1.1" id="Layer_1" xmlns="http://www.w3.org/2000/svg" xmlns:xlink="http://www.w3.org/1999/xlink" x="0px" y="0px"
	 width="40px" height="40px" viewBox="0 0 40 40" enable-background="new 0 0 40 40" xml:space="preserve">
<g>
	<path d="M20,0C8.972,0,0,8.972,0,20c0,11.028,8.972,20,20,20s20-8.972,20-20C40,8.972,31.028,0,20,0z M20,38
		c-9.925,0-18-8.075-18-18c0-9.925,8.075-18,18-18s18,8.075,18,18C38,29.925,29.925,38,20,38z"/>
	<polygon points="25.293,13.293 20,18.586 14.707,13.293 13.293,14.707 18.586,20 13.293,25.293 14.707,26.707 20,21.414 
		25.293,26.707 26.707,25.293 21.414,20 26.707,14.707 	"/>
</g>
</svg>
